<svg xmlns="http://www.w3.org/2000/svg" viewBox="0 0 334.24 271.1"><g id="Layer_2" data-name="Layer 2"><g id="Layer_1-2" data-name="Layer 1"><path d="M334.24,181.72c-.19,20.76-3.94,40.55-15.47,58.22-15.08,23.13-36.92,32.58-63.92,31-23.27-1.37-43-11.85-61.45-25.08-2.55-1.82-4.37-2.16-7.27-.75-30.06,14.58-61.72,21.86-95.2,19.44-23.7-1.72-46.31-7.25-65.44-22.5-26.71-21.3-32.9-53.24-16.33-83.95,10.73-19.9,26.76-34.62,45.62-46.53a183.7,183.7,0,0,1,53.71-23c2.93-.74,3.67-1.92,3.73-4.76.42-18.3,4.46-35.72,14.28-51.33C141.39,8.82,163.31-1.59,190.84.2c25.87,1.68,47.82,13.24,67.45,29.4,40.6,33.43,64.63,76.6,73.92,128.23.44,2.46.71,4.95.91,7.44C333.54,170.75,333.87,176.24,334.24,181.72Zm-206.62-43c13.63,39.61,34.69,73.5,67.89,98.93,16.3,12.48,34.05,22,54.82,25,30.11,4.29,56-10.15,67.85-38.17,8.83-20.81,9.91-42.53,6.34-64.42C317.27,115.53,297.39,77.32,265,45.91,248.07,29.55,229,16.46,205.89,10.6c-20.82-5.28-40.72-3.53-58.28,10C134,31.09,126.68,45.81,122.92,62.28c-1.76,7.7-2.47,15.63-3.62,23.26l38-3.22c.71-8.22.8-16.64,2.25-24.82,4.93-27.87,27.14-41.88,54.38-34.78,15,3.9,27.63,12.08,39,22.18,33.37,29.65,54.45,66.6,63.44,110.34,3.25,15.81,3.87,31.76-1.23,47.45-4.77,14.67-13.33,25.61-29.09,29.34-9.79,2.33-19.29,1-28.64-2.36-18.14-6.59-32.83-18.23-46-32-16.73-17.51-29.54-37.66-39.34-59.78-.55-1.25-2-3-3-3A157.19,157.19,0,0,0,127.62,138.73Zm101.76,64.71c2.8-3.85,5.6-7.33,8-11.08C246,178.71,251.23,164,248.81,147.6c-3-20.06-15.44-33.34-32.36-42.94-19.92-11.31-41.8-14.42-64.24-14.24-33.58.26-64.63,9.69-93.13,27.41-17.75,11-32.84,24.82-42.92,43.49-15.76,29.18-9.07,58,17.91,77.14,16.31,11.56,35,15.95,54.45,17.8C113.1,258.61,137,255,160.32,247c7.59-2.58,14.94-5.86,22.63-8.91-4.07-4.73-4.07-4.72-8.76-2.69-24.23,10.47-49.43,16.31-75.93,15.64-16.1-.4-31.83-2.76-46.17-10.71-21.61-12-27.5-33.26-15.43-54.86,5.79-10.37,14.08-18.49,23.52-25.35,36-26.16,76.44-36.74,120.61-32.66a81.2,81.2,0,0,1,36.83,12.56c14.36,9.22,20.81,25.78,15.56,41.62-2,6.07-5.36,11.69-8.24,17.81Zm6.24,5.86c7.15,3.79,14.49,7.9,22.07,11.52,1.66.8,4.44.45,6.2-.41,7.73-3.77,12.75-10.22,16.21-17.95,5.49-12.24,6.42-25.2,4.78-38.22-4.48-35.5-20.55-65.17-46.58-89.42-11-10.24-23.55-18.06-38.45-21.4-9.78-2.19-19.34-1.84-28.25,3.36-1.58.92-3.82,2.11-4.13,3.53-1.64,7.4-2.48,14.91-1.33,22.59,15.33,1.15,29.94,4,43.86,9.87,12.84,5.4,24.34,12.78,33.1,23.75,17.89,22.38,18,46.49,5.79,71.27C245.34,195,240.46,201.54,235.62,209.3ZM120.25,140.72a15,15,0,0,0-1.87.21c-15.32,4.28-30,10.15-43.46,18.69-9.86,6.24-19,13.4-26.32,22.56-2.16,2.68-3.84,5.66-2.25,9.3,2.62,6,6,11.47,11.13,15.75A57.59,57.59,0,0,0,81.13,218.8c25.39,6.19,50,2.74,74-6.55a18.15,18.15,0,0,0,2.25-1.25A226.46,226.46,0,0,1,120.25,140.72Zm152.18,83.91a11.36,11.36,0,0,0,1.88.43c13.13.2,23.74-4.37,29.8-16.67a61.91,61.91,0,0,0,4.94-13.67c3.61-16,1.69-31.9-2.36-47.49a192.93,192.93,0,0,0-47.84-86.15c-11.48-12-24.23-22.36-39.83-28.61-9.2-3.68-18.73-5.38-28.53-2.73-9.5,2.57-15.31,9.24-19.16,17,7.14-.73,14.27-2.18,21.37-2,14,.35,26.41,6.08,37.69,14,30,21,48.6,50,58.55,84.89,4.65,16.29,6.09,32.89,2.37,49.67C288.56,205.67,282.93,216.36,272.43,224.63Zm-100,3.53c-2.66-2.89-5.06-5.1-7-7.67s-3.57-2.48-6.31-1.38c-25.08,10.1-50.92,13.84-77.58,7.9-17.39-3.88-32.23-11.87-40.71-28.7-.06-.14-.42-.13-.65-.19-4.35,10.43-1.25,22,8.15,30.26A53,53,0,0,0,71.2,239.81C106.12,248.33,139.35,241.84,172.41,228.16Zm30.73-53.38a37.72,37.72,0,0,0,5.63-24.21c-.63-4.89-2.31-8.73-7.82-9.9-3.63-.77-7.09-2.3-10.7-3.22-3.25-.83-6.59-1.29-10.21-2C183.39,145.54,197.71,169.72,203.14,174.78Zm15.14,18.54c12.42-15.07,11.41-33.24-.65-42.7-.76,5.27-1,10.91-2.5,16.2s-4.19,10.27-6.52,15.75C211.65,186,215,189.62,218.28,193.32Z"/><path d="M51.87,29.57c.31-2.41.42-4.53.87-6.58A26.44,26.44,0,0,1,79.15,1.92c13.4.1,23.58,8.73,26.31,22.57,2.44,12.35,1,24.64-1,36.87a117,117,0,0,1-2.88,13.53c-.48,1.64-2.11,3.8-3.59,4.16C82.06,82.91,66,86,49.53,83.72,34,81.62,24.33,70.85,24.63,56.05A26.49,26.49,0,0,1,49.71,29.73Zm11.52,47.5c8.9-1.4,18.48-2.83,28-4.52a4.75,4.75,0,0,0,3.21-2.77C97.67,56.47,99.86,43,98,29.32c-1-7.35-3-14.19-10.64-17.73C73.74,5.26,59,15.32,59.84,30.46c.39,7.19,0,7.54-7,6.92-9.72-.87-18.5,6-20.38,16-1.8,9.54,3.52,18.5,13.08,21C51.08,75.75,56.85,76.11,63.39,77.07Z"/></g></g></svg>